<?xml version="1.0" encoding="UTF-8"?>
<svg width="90px" height="90px" viewBox="0 0 90 90" version="1.1" xmlns="http://www.w3.org/2000/svg" xmlns:xlink="http://www.w3.org/1999/xlink">
    <title>accounts</title>
    <g id="accounts" stroke="none" stroke-width="1" fill="none" fill-rule="evenodd">
        <g id="Orion_woman-(1)" transform="translate(5.000000, 5.000000)" fill-rule="nonzero">
            <path d="M49.326375,52.1281956 L49.71875,52.4063518 L49.71875,55.0938518 C49.71875,57.3083518 49.7483125,61.3355706 57.6912188,63.4425706 C58.0298438,63.3888206 60.8167813,62.8083206 65.84375,57.7813518 C60.68375,52.6213518 59.2298125,32.6088831 59.125,31.0192268 C59.0900625,40.1244768 55.13675,48.0378206 49.326375,52.1281956 Z" id="Path" fill="#F7C98A"></path>
            <path d="M40.3125,0.000101812861 C31.4074687,0.000101812861 21.5,5.37510181 21.5,19.3501018 L21.5,30.9063518 C21.5,39.8503518 25.289375,47.6441018 30.90625,51.8285393 L30.90625,55.0938518 C30.90625,57.3782268 30.90625,61.5908831 22.2081563,63.6360706 L34.9375,79.2813518 L45.6875,79.2813518 L58.4168437,63.6360706 C49.71875,61.5908831 49.71875,57.3782268 49.71875,55.0938518 L49.71875,51.8285393 C55.335625,47.6441018 59.125,39.8503518 59.125,30.9063518 L59.125,19.3501018 C59.125,5.37510181 49.2175313,0.000101812861 40.3125,0.000101812861 Z" id="Path" fill="#FFD9D9"></path>
            <path d="M31.2999687,52.1281956 L30.90625,52.4063518 L30.90625,55.0938518 C30.90625,57.3083518 30.8753437,61.3355706 22.9337812,63.4425706 C22.5951563,63.3888206 19.8082187,62.8083206 14.78125,57.7813518 C19.94125,52.6213518 21.3951875,32.6088831 21.5,31.0192268 C21.5349375,40.1244768 25.48825,48.0378206 31.2999687,52.1281956 Z" id="Path" fill="#F7C98A"></path>
            <path d="M40.3125,54.7579143 L40.3125,0.000101812861 C31.4074687,0.000101812861 21.5,5.37510181 21.5,19.3501018 L21.5,30.9063518 C21.5,39.8503518 25.289375,47.6441018 30.90625,51.8285393 L30.90625,55.0938518 C30.90625,57.3782268 30.90625,61.5908831 22.2081562,63.6360706 C20.3912416,64.0491604 18.5482665,64.3378408 16.6920625,64.5001018 C3.31234375,65.7659143 0,79.2813518 0,79.2813518 L22.2659375,79.2813518 L49.71875,51.8285393 C46.8686693,53.5564213 43.6396852,54.5620193 40.3125,54.7579143 Z" id="Path" fill="#000064" opacity="0.15"></path>
            <path d="M80.625,79.2813518 C80.625,79.2813518 77.3126562,65.7659143 63.9329375,64.5001018 C62.0767335,64.3378408 60.2337584,64.0491604 58.4168438,63.6360706 L45.6875,79.2813518 L80.625,79.2813518 Z M0,79.2813518 C0,79.2813518 3.31234375,65.7659143 16.6920625,64.5001018 C18.5482665,64.3378408 20.3912416,64.0491604 22.2081563,63.6360706 L34.9375,79.2813518 L0,79.2813518 Z" id="Shape" fill="#F27E7C"></path>
            <path d="M40.3125,0 C37.5473589,-0.00849997316 34.8076397,0.528028371 32.25,1.57900806 C26.3173438,4.05553931 21.5,9.60791431 21.5,19.3501018 L21.5,27.3669143 C32.2014648,26.209352 40.3117966,17.1750217 40.3125,6.41113306 C40.3138895,17.1745081 48.4240458,26.2080636 59.125,27.3655706 L59.125,19.3501018 C59.125,5.37510181 49.2175313,0 40.3125,0 Z" id="Path" fill="#F7C98A"></path>
            <path d="M40.3125,0 C37.5473589,-0.00849997316 34.8076397,0.528028371 32.25,1.57900806 C26.3173437,4.05553931 21.5,9.60791431 21.5,19.3501018 L21.5,27.3669143 C32.2014648,26.209352 40.3117966,17.1750217 40.3125,6.41113306 L40.3125,0 Z" id="Path" fill="#000064" opacity="0.15"></path>
        </g>
    </g>
</svg>