<?xml version="1.0" encoding="UTF-8"?>
<svg width="90px" height="90px" viewBox="0 0 90 90" version="1.1" xmlns="http://www.w3.org/2000/svg" xmlns:xlink="http://www.w3.org/1999/xlink">
    <title>chat</title>
    <g id="chat" stroke="none" stroke-width="1" fill="none" fill-rule="evenodd">
        <g id="Orion_chats-(3)" transform="translate(5.000000, 9.000000)" fill-rule="nonzero">
            <path d="M2.6875,59.13575 L23.429625,50.6150312 C26.3238341,51.2711648 29.2823485,51.6015412 32.25,51.6 C50.06275,51.6 64.5,40.04375 64.5,25.8 C64.5,11.55625 50.06275,0 32.25,0 C14.43725,0 0,11.55625 0,25.8 C0,33.05625 3.74234375,39.5962812 9.7583125,44.2819375 L2.6875,59.13575 Z" id="Path" fill="#F7C98A"></path>
            <path d="M80.625,47.84825 C80.625,39.48475 73.6012187,32.43275 64.0175938,30.2625938 C61.54375,41.5742812 49.8732813,50.3556875 35.3903437,51.476375 C37.490625,59.8318125 46.7195,66.12325 57.78125,66.12325 C59.8835302,66.1241146 61.9793315,65.8901961 64.0296875,65.4258438 L77.9375,71.2295 L73.7114062,60.9350313 C77.9303196,57.8893087 80.4869514,53.0498457 80.625,47.84825 Z" id="Path" fill="#8CB1D7"></path>
            <path d="M35.9614375,53.2420625 C36.0864063,53.5645625 36.2301875,53.8830312 36.3645625,54.1974687 C36.4599688,54.4017187 36.5580625,54.6005937 36.662875,54.8061875 C36.8088958,55.0892708 36.9629792,55.3687708 37.125125,55.6446875 C37.3380359,56.000443 37.5639381,56.3482607 37.802375,56.6874375 C38.4090324,57.5567862 39.0877821,58.3735334 39.8314375,59.1290312 L54.567,44.4015312 C48.9906255,48.5594521 42.3309972,51.0163887 35.3903437,51.476375 C35.5059062,51.93325 35.6510312,52.3807187 35.80825,52.820125 C35.856625,52.9665938 35.9076875,53.1036563 35.9614375,53.2420625 L35.9614375,53.2420625 Z" id="Path" fill="#000064" opacity="0.15"></path>
        </g>
    </g>
</svg>