<?xml version="1.0" encoding="UTF-8"?>
<svg width="90px" height="90px" viewBox="0 0 90 90" version="1.1" xmlns="http://www.w3.org/2000/svg" xmlns:xlink="http://www.w3.org/1999/xlink">
    <title>email</title>
    <g id="email" stroke="none" stroke-width="1" fill="none" fill-rule="evenodd">
        <g id="Orion_mailbox-(1)" transform="translate(5.000000, 5.000000)" fill-rule="nonzero">
            <path d="M29.5625,80.625 C28.8203674,80.625 28.21875,80.0233826 28.21875,79.28125 L28.21875,55.09375 C28.21875,54.3516174 28.8203674,53.75 29.5625,53.75 C30.3046326,53.75 30.90625,54.3516174 30.90625,55.09375 L30.90625,79.28125 C30.90625,80.0233826 30.3046326,80.625 29.5625,80.625 Z" id="Path" fill="#7B8BAF"></path>
            <path d="M63.15625,9.40625 L37.625,9.40625 L37.625,12.09375 L24.1875,12.09375 L24.1875,9.40625 L12.09375,9.40625 C5.41455631,9.40625 0,14.8208063 0,21.5 L0,55.09375 L51.0625,55.09375 L51.0625,21.5 C51.0625,14.8208063 56.4770563,9.40625 63.15625,9.40625 Z" id="Path" fill="#A7C5F2"></path>
            <path d="M75.25,22.84375 L75.25,21.5 C75.25,14.8208064 69.8354436,9.40625036 63.15625,9.40625036 C56.4770564,9.40625036 51.0625,14.8208064 51.0625,21.5 L51.0625,55.09375 L75.25,55.09375 L75.25,44.34375 L61.8125,44.34375 L61.8125,22.84375 L75.25,22.84375 Z" id="Path" fill="#8FA9D8"></path>
            <polygon id="Path" fill="#C8DAF8" points="76.7402187 44.34375 61.8125 44.34375 61.8125 22.84375 80.3307187 22.84375"></polygon>
            <polygon id="Path" fill="#000064" opacity="0.15" points="75.25 44.34375 61.8125 44.34375 61.8125 22.84375 56.690125 27.9674687 56.690125 49.4674687 71.6178437 49.4674687 75.25 45.8339687"></polygon>
            <polygon id="Path" fill="#D35E5E" points="24.1875 1.34375 37.625 1.34375 37.625 12.09375 24.1875 12.09375"></polygon>
            <polygon id="Path" fill="#000064" opacity="0.15" points="24.1875 9.40625 21.8104063 9.40625 21.8104063 14.4547187 35.2479063 14.4547187 37.608875 12.09375 24.1875 12.09375"></polygon>
            <path d="M37.625,13.4375 C36.8828674,13.4375 36.28125,12.8358826 36.28125,12.09375 L36.28125,1.34375 C36.28125,0.601617367 36.8828674,0 37.625,0 C38.3671326,0 38.96875,0.601617367 38.96875,1.34375 L38.96875,12.09375 C38.96875,12.8358826 38.3671326,13.4375 37.625,13.4375 Z" id="Path" fill="#7B8BAF"></path>
            <path d="M37.625,24.1875 C36.8828674,24.1875 36.28125,23.5858826 36.28125,22.84375 L36.28125,12.09375 C36.28125,11.3516174 36.8828674,10.75 37.625,10.75 C38.3671326,10.75 38.96875,11.3516174 38.96875,12.09375 L38.96875,22.84375 C38.96875,23.5858826 38.3671326,24.1875 37.625,24.1875 Z" id="Path" fill="#7B8BAF"></path>
        </g>
    </g>
</svg>