<?xml version="1.0" encoding="UTF-8"?>
<svg width="90px" height="90px" viewBox="0 0 90 90" version="1.1" xmlns="http://www.w3.org/2000/svg" xmlns:xlink="http://www.w3.org/1999/xlink">
    <title>getting_started</title>
    <g id="getting_started" stroke="none" stroke-width="1" fill="none" fill-rule="evenodd">
        <g id="Orion_lifebelt-(4)" transform="translate(5.000000, 5.000000)" fill-rule="nonzero">
            <path d="M2.68619183,32.2137028 C1.9440592,32.2137028 1.34244183,31.6120854 1.34244183,30.8699528 L1.34244183,15.5149215 C1.34984714,7.71180473 7.67288908,1.38756046 15.4760043,1.37867153 L30.9049418,1.37867153 C31.6470745,1.37867153 32.2486918,1.9802889 32.2486918,2.72242153 C32.2486918,3.46455416 31.6470745,4.06617153 30.9049418,4.06617153 L15.4760043,4.06617153 C9.15654029,4.07357901 4.0358657,9.19545592 4.02994183,15.5149215 L4.02994183,30.8699528 C4.02994183,31.6120854 3.42832446,32.2137028 2.68619183,32.2137028 Z M48.3253168,2.68748403 C48.3253168,1.9453514 48.9269342,1.34373403 49.6690668,1.34373403 L65.0240981,1.34373403 C72.8266901,1.35187983 79.1501167,7.67470529 79.1590043,15.4772965 L79.1590043,30.906234 C79.1590043,31.6483667 78.557387,32.249984 77.8152543,32.249984 C77.0731217,32.249984 76.4715043,31.6483667 76.4715043,30.906234 L76.4715043,15.4772965 C76.4640982,9.1583565 71.3430389,4.03789837 65.0240981,4.03123403 L49.6690668,4.03123403 C48.9269342,4.03123403 48.3253168,3.42961666 48.3253168,2.68748403 Z M77.8152543,48.4112653 C78.557387,48.4112653 79.1590043,49.0128826 79.1590043,49.7550153 L79.1590043,65.1100465 C79.151599,72.9131633 72.8285571,79.2374076 65.0254418,79.2462965 L49.5965043,79.2462965 C48.8543717,79.2462965 48.2527543,78.6446792 48.2527543,77.9025465 C48.2527543,77.1604139 48.8543717,76.5587965 49.5965043,76.5587965 L65.0267856,76.5587965 C71.3457256,76.5513904 76.4661837,71.4303311 76.4728481,65.1113903 L76.4728481,49.7550153 C76.4728477,49.0134071 77.0736465,48.4120069 77.8152543,48.4112653 L77.8152543,48.4112653 Z M32.1761293,77.937484 C32.1761293,78.6796167 31.574512,79.281234 30.8323793,79.281234 L15.4773481,79.281234 C7.67475604,79.2730882 1.35132943,72.9502628 1.34244183,65.1476715 L1.34244183,49.718734 C1.34244183,48.9766014 1.9440592,48.374984 2.68619183,48.374984 C3.42832446,48.374984 4.02994183,48.9766014 4.02994183,49.718734 L4.02994183,65.1476715 C4.03734796,71.4666116 9.15840722,76.5870697 15.4773481,76.593734 L30.8323793,76.593734 C31.574512,76.593734 32.1761293,77.1953514 32.1761293,77.937484 L32.1761293,77.937484 Z" id="Shape" fill="#F7C98A"></path>
            <path d="M40.3111918,16.124984 C43.02848,16.1305812 45.725284,16.5953437 48.2876918,17.4996403 L51.0867231,1.46870278 C44.0629428,-0.481782339 36.6415124,-0.489677477 29.6135981,1.44585903 L32.3320043,17.4996403 C34.8951522,16.5946192 37.5929632,16.1298397 40.3111918,16.124984 Z" id="Path" fill="#E6EDF7"></path>
            <path d="M32.3346918,17.4996403 L29.6162856,1.44585903 C15.9077988,5.23201599 5.20233413,15.9512626 1.43381683,29.664609 L17.4862543,32.3803278 C19.9124257,25.4183872 25.3780314,19.9409105 32.3346918,17.4996403 L32.3346918,17.4996403 Z M63.1415043,32.3749528 L79.1939418,29.659234 C75.4301015,15.9767906 64.7602904,5.27432982 51.0894106,1.46870278 L48.2903793,17.4996403 C55.2471101,19.9387405 60.7137283,25.414262 63.1415043,32.3749528 L63.1415043,32.3749528 Z M48.2782856,63.1307028 L51.0773168,79.1616403 C64.6975513,75.373282 75.3441629,64.7368644 79.1455668,51.1202653 L63.1159731,48.321234 C60.6738846,55.2536989 55.2153867,60.7018157 48.2782856,63.1307028 L48.2782856,63.1307028 Z" id="Shape" fill="#F27E7C"></path>
            <path d="M40.3111918,64.499984 C37.5972528,64.4950862 34.9036465,64.0316896 32.3440981,63.129359 L29.6297231,79.1831403 C36.6497051,81.1132346 44.0614622,81.1053403 51.0773168,79.1602965 L48.2782856,63.129359 C45.718646,64.0313397 43.0250997,64.494726 40.3111918,64.499984 Z M79.1925981,29.659234 L63.1415043,32.3749528 C64.9639243,37.5356857 64.9549092,43.1663633 63.1159731,48.321234 L79.1455668,51.1202653 C81.1005925,44.1021946 81.1159175,36.6853239 79.1899106,29.659234 L79.1925981,29.659234 Z" id="Shape" fill="#E6EDF7"></path>
            <path d="M17.5131293,48.321234 L1.47681683,51.1202653 C5.28698945,64.766407 15.9714472,75.4166965 29.6297231,79.1831403 L32.3467856,63.129359 C25.4109776,60.7005794 19.9538534,55.2528478 17.5131293,48.321234 L17.5131293,48.321234 Z" id="Path" fill="#F27E7C"></path>
            <path d="M16.1236918,40.312484 C16.1284071,37.609081 16.5881205,34.9257538 17.4835668,32.3749528 L1.43381683,29.659234 C-0.492428056,36.6852294 -0.477567489,44.1020453 1.47681683,51.1202653 L17.5131293,48.321234 C16.5998344,45.7495857 16.1300061,43.0414844 16.1236918,40.312484 L16.1236918,40.312484 Z" id="Path" fill="#E6EDF7"></path>
            <path d="M40.3111918,16.124984 C53.6695792,16.124984 64.4986918,26.9540966 64.4986918,40.312484 C64.4986918,53.6708714 53.6695792,64.499984 40.3111918,64.499984 C26.9528044,64.499984 16.1236918,53.6708714 16.1236918,40.312484 C16.1392419,26.960543 26.9592508,16.1405341 40.3111918,16.124984 M40.3111918,8.06248403 C22.5000086,8.06248403 8.06119183,22.5013008 8.06119183,40.312484 C8.06119183,58.1236672 22.5000086,72.562484 40.3111918,72.562484 C58.122375,72.562484 72.5611918,58.1236672 72.5611918,40.312484 C72.5611918,22.5013008 58.122375,8.06248403 40.3111918,8.06248403 Z" id="Shape" fill="#000064" opacity="0.15"></path>
        </g>
    </g>
</svg>